<svg width="240" height="300" viewBox="0 0 240 300" fill="none" xmlns="http://www.w3.org/2000/svg">
<path d="M49.2 213.2V58L40 55.6C36.4 54.4 34 51.2 34 47.6V7.6C34 4.8 36.8 0 40 0H157.6C218 0 239.6 42.4 239.6 95.2V173.2L238.4 190.8C235.2 236.8 208.8 270.8 161.2 270.8H40.4C36.8 270.8 34 266.4 34 263.2V223.2C29.6 223.2 27.6 228 27.6 231.6L15.6 240.4V235.6L34.4 221.6C34.8 221.2 35.2 219.6 35.6 219.2C37.2 216.8 39.6 216.4 42.4 215.6C42.8 215.2 42.8 215.2 43.2 215.2L49.2 213.2ZM14.8 29.2L0 40.4V36.4C0 36 -3.72529e-07 35.2 0.4 34.8L8.4 29.2H14.8ZM0 46.4L23.2 29.2H27.6V30.8L0 51.6V46.4ZM0 57.6L27.6 37.2V42L0 62.8V57.6ZM0 73.6V68.8L26.8 48.8C27.2 48.8 27.2 48.4 27.6 48.4V53.2L0 73.6ZM0.4 79.6L28.8 58.8C29.6 60 30.4 60.4 31.2 61.6L2.8 82.8C2.8 82.8 2 82.4 1.6 82C1.2 81.6 0.4 80.4 0.4 79.6ZM103.6 59.6L104 68.8C104.4 68.4 106.4 66.8 107.2 66.4H113.6L103.6 74V80L122 66.4H128.8L103.6 85.2V211.2H152.4L176.8 192.8V193.2C176.8 193.6 175.2 198.4 175.2 198.8L158.8 211.2C180.4 211.2 185.6 183.6 185.6 166.4V98C185.6 71.6 180.8 59.6 152.4 59.6H103.6ZM12.4 86.4L8 85.2L37.2 63.6H37.6L42 64.8L13.2 86.4H12.4ZM107.2 88.8L137.2 66.4H143.6L113.6 88.8H107.2ZM122 88.8L151.2 66.8C151.6 66.4 151.6 66.4 152 66.4C152.4 66.4 153.2 66.8 153.6 66.8C154.8 66.8 157.2 67.2 157.2 67.2L128 89.2C126.8 89.2 122.8 88.8 122 88.8ZM134.8 90.4L163.6 68.8C164.4 68.8 167.2 70 167.6 70.4L139.2 92C138.4 92 134.8 90.4 134.8 90.4ZM15.6 95.6V90.8L42.8 70.4V75.2L15.6 95.6ZM143.6 95.2V94.8L172 74C172.8 74.8 173.6 76 174 77.2L146 98C145.6 98 144.8 96.8 144.8 96.8C144.8 96.4 143.6 95.6 143.6 95.2ZM15.6 102L42.8 81.6V86.4L15.6 106.8V102ZM148.4 102.8L176 82L176.4 82.8C176.4 83.2 176.8 85.2 176.8 86L149.6 106.4L149.2 106.8L148 103.2C148 102.8 148 102.8 148.4 102.8ZM150.8 116.4L150.4 112.4L178 91.6C178 91.6 178.4 94.4 178.4 96L151.2 116.4L150.8 116.8V116.4ZM15.6 113.2L42.8 92.8V97.6L15.6 118V113.2ZM151.6 122.8L179.2 102V106V106.8L152 127.2C151.6 125.6 151.6 124.4 151.6 122.8ZM15.6 128.8V124.4L42.8 104V108.4L15.6 128.8ZM151.6 138.4V133.6L179.2 113.2V118L151.6 138.4ZM15.6 140V135.2L42.8 114.4V119.6L15.6 140ZM151.6 144.8L179.2 124.4V129.2L151.6 149.6V144.8ZM15.6 146.4L42.8 125.6V130.8L15.6 151.2V146.4ZM151.6 156L179.2 135.6V140L151.6 160.4V156ZM15.6 162.4V157.6L42.8 136.8V141.6L15.6 162.4ZM151.6 166.8L179.2 146.4V151.2L151.6 171.6V166.8ZM15.6 173.6V168.8L42.8 148V152.8L15.6 173.6ZM151.6 178L179.2 157.6V162.4L151.6 182.8V178ZM15.6 179.6L42.8 159.2V164L15.6 184.8V179.6ZM151.6 194V189.2L179.2 168.8V173.2C179.2 173.6 178.8 173.6 178.8 173.6L151.6 194ZM15.6 196V190.8L42.8 170.4V175.2L15.6 196ZM151.2 200.4L178.4 180.4H178.8C178.4 182 178.4 185.2 178.4 185.2L150.8 205.6C150.8 204.8 151.2 202 151.2 201.6V200.4ZM15.6 206.8V202L42.8 181.6V186.4L15.6 206.8ZM15.6 213.2L42.8 192.8V197.6L15.6 218V213.2ZM15.6 224.4L42.8 204V208.8L15.6 229.2V224.4ZM0 263.2V258.4L27.6 238V242.8L0 263.2ZM10.8 244L0 252C0 247.6 6.8 244 10.8 244ZM0 269.6L27.6 249.2V253.6L0 274V269.6ZM0 285.2V280.4L27.6 260V264.8L0 285.2ZM0 291.6L27.2 271.2C28 272 28 272.4 28.4 273.6L29.2 274.8L1.2 295.6C0.4 295.6 0 292.4 0 291.6ZM139.6 298.8H139.2L169.6 276.4C170.4 276 171.6 275.6 172 275.6C172.8 275.6 176.8 274.8 177.6 274.4H178L147.2 297.6C146.4 298 140.4 298.8 139.6 298.8ZM162 292.8L183.2 276.8C179.6 282.4 168 290.4 162 292.8ZM129.6 300H123.2L152.8 278C154 277.2 155.6 277.2 156.8 277.2H159.6L130 299.6L129.6 300ZM4.4 299.6L33.6 277.6H40L10.4 300H6C5.6 300 4.8 299.6 4.4 299.6ZM18.8 300L48.4 277.6H55.2L25.2 300H18.8ZM40 300H33.6L63.6 277.6H70L40 300ZM48.8 300L78.4 277.6H84.8L55.2 300H48.8ZM63.6 300L93.2 277.6H99.6L70 300H63.6ZM84.8 300H78.4L108.4 277.6H114.8L84.8 300ZM100 300H93.2L123.2 277.6H129.6L100 300ZM108.4 300L138 277.6H144.4L114.8 300H108.4Z" fill="#FCFAFF"/>
</svg>
